<?xml version="1.0" encoding="UTF-8" standalone="no"?>
<!DOCTYPE svg PUBLIC "-//W3C//DTD SVG 1.1//EN" "http://www.w3.org/Graphics/SVG/1.1/DTD/svg11.dtd">
<!-- Generated by graphviz version 2.40.1 (20161225.0304)
 -->
<!-- Title: TD Pages: 1 -->
<svg xmlns="http://www.w3.org/2000/svg" xmlns:xlink="http://www.w3.org/1999/xlink" width="887pt" height="757pt" viewBox="0.00 0.00 886.50 756.90">
  <g id="graph0" class="graph" transform="scale(1 1) rotate(0) translate(4 752.9)">
    <title>TD</title>
    <g id="a_graph0">
      <a xlink:title="Click the boxes for further information">
        <polygon fill="#ffffff" stroke="transparent" points="-4,4 -4,-752.9 882.5,-752.9 882.5,4 -4,4"/>
      </a>
    </g>
    <!-- 1&#45;&gt;2 -->
    <g id="edge1" class="edge">
      <title>1-&gt;2</title>
      <path fill="none" stroke="#ffffff" d="M194.5,-719.7434C194.5,-710.0181 194.5,-696.7994 194.5,-684.3577"/>
    </g>
    <!-- 2&#45;&gt;A -->
    <g id="edge2" class="edge">
      <title>2-&gt;A</title>
      <path fill="none" stroke="#000000" d="M194.5,-611.5494C194.5,-482.8851 194.5,-56.6316 194.5,-36.7216"/>
    </g>
    <!-- 3&#45;&gt;4 -->
    <!-- 3&#45;&gt;5 -->
    <!-- 4&#45;&gt;5 -->
    <g id="edge6" class="edge">
      <title>4-&gt;5</title>
      <path fill="none" stroke="#000000" d="M590.821,-648C599.202,-648 607.6641,-648 616.0915,-648"/>
      <polygon fill="#000000" stroke="#000000" points="616.346,-651.5001 626.3459,-648 616.3459,-644.5001 616.346,-651.5001"/>
    </g>
    <!-- 4&#45;&gt;6 -->
    <g id="edge7" class="edge">
      <title>4-&gt;6</title>
      <path fill="none" stroke="#000000" d="M464.5,-629.6785C464.5,-608.8692 464.5,-574.661 464.5,-550.3901"/>
      <polygon fill="#000000" stroke="#000000" points="468.0001,-550.3435 464.5,-540.3436 461.0001,-550.3436 468.0001,-550.3435"/>
    </g>
    <!-- 5&#45;&gt;7 -->
    <!-- 6&#45;&gt;7 -->
    <g id="edge8" class="edge">
      <title>6-&gt;7</title>
      <path fill="none" stroke="#000000" d="M590.821,-522C599.202,-522 607.6641,-522 616.0915,-522"/>
      <polygon fill="#000000" stroke="#000000" points="616.346,-525.5001 626.3459,-522 616.3459,-518.5001 616.346,-525.5001"/>
    </g>
    <!-- 6&#45;&gt;8 -->
    <g id="edge9" class="edge">
      <title>6-&gt;8</title>
      <path fill="none" stroke="#000000" d="M464.5,-503.4582C464.5,-495.9583 464.5,-487.1245 464.5,-478.8217"/>
      <polygon fill="#000000" stroke="#000000" points="467.9999,-478.7292 464.5,-468.7292 460.9999,-478.7292 467.9999,-478.7292"/>
    </g>
    <!-- 7&#45;&gt;9 -->
    <!-- 8&#45;&gt;9 -->
    <g id="edge10" class="edge">
      <title>8-&gt;9</title>
      <path fill="none" stroke="#000000" d="M590.821,-450C599.202,-450 607.6641,-450 616.0915,-450"/>
      <polygon fill="#000000" stroke="#000000" points="616.346,-453.5001 626.3459,-450 616.3459,-446.5001 616.346,-453.5001"/>
    </g>
    <!-- 8&#45;&gt;10 -->
    <g id="edge11" class="edge">
      <title>8-&gt;10</title>
      <path fill="none" stroke="#000000" d="M464.5,-431.5119C464.5,-408.9171 464.5,-370.4257 464.5,-343.9052"/>
      <polygon fill="#000000" stroke="#000000" points="468.0001,-343.698 464.5,-333.698 461.0001,-343.6981 468.0001,-343.698"/>
    </g>
    <!-- 9&#45;&gt;11 -->
    <!-- 10&#45;&gt;12 -->
    <g id="edge13" class="edge">
      <title>10-&gt;12</title>
      <path fill="none" stroke="#000000" d="M464.5,-296.4148C464.5,-267.2677 464.5,-210.2306 464.5,-172.3629"/>
      <polygon fill="#000000" stroke="#000000" points="468.0001,-172.2296 464.5,-162.2297 461.0001,-172.2297 468.0001,-172.2296"/>
    </g>
    <!-- 10&#45;&gt;C -->
    <g id="edge12" class="edge">
      <title>10-&gt;C</title>
      <path fill="none" stroke="#000000" d="M590.821,-315C599.202,-315 607.6641,-315 616.0915,-315"/>
      <polygon fill="#000000" stroke="#000000" points="616.346,-318.5001 626.3459,-315 616.3459,-311.5001 616.346,-318.5001"/>
    </g>
    <!-- 12&#45;&gt;19 -->
    <g id="edge17" class="edge">
      <title>12-&gt;19</title>
      <path fill="none" stroke="#000000" d="M464.5,-107.9478C464.5,-100.0473 464.5,-91.1788 464.5,-82.4382"/>
      <polygon fill="#000000" stroke="#000000" points="467.9999,-82.3018 464.5,-72.3018 460.9999,-82.3018 467.9999,-82.3018"/>
    </g>
    <!-- A&#45;&gt;19 -->
    <g id="edge3" class="edge">
      <title>A-&gt;19</title>
      <path fill="none" stroke="#000000" d="M195.2745,-36C202.8789,-36 265.2543,-36 328.0484,-36"/>
      <polygon fill="#000000" stroke="#000000" points="328.1218,-39.5001 338.1218,-36 328.1217,-32.5001 328.1218,-39.5001"/>
    </g>
    <!-- identification -->
    <g id="node1" class="node">
      <title>identification</title>
      <g id="a_node1">
        <a xlink:title="Blue identification box">
          <path fill="#bcd2ee" stroke="#bcd2ee" d="M19.3333,-684C19.3333,-684 9.6667,-684 9.6667,-684 4.8333,-684 0,-679.1666 0,-674.3333 0,-674.3333 0,-621.6666 0,-621.6666 0,-616.8333 4.8333,-612 9.6667,-612 9.6667,-612 19.3333,-612 19.3333,-612 24.1667,-612 29,-616.8333 29,-621.6666 29,-621.6666 29,-674.3333 29,-674.3333 29,-679.1666 24.1667,-684 19.3333,-684"/>
          <text text-anchor="middle" x="644.4" y="16.5" font-family="Helvetica,sans-Serif" font-size="12.00" fill="#000000" transform="rotate(-90)">Identification</text>
        </a>
      </g>
    </g>
    <!-- screening -->
    <g id="node2" class="node">
      <title>screening</title>
      <g id="a_node2">
        <a xlink:title="Blue screening box">
          <path fill="#bcd2ee" stroke="#bcd2ee" d="M19.3333,-600C19.3333,-600 9.6667,-600 9.6667,-600 4.8333,-600 0,-595.1667 0,-590.3333 0,-590.3333 0,-267.6667 0,-267.6667 0,-262.8333 4.8333,-258 9.6667,-258 9.6667,-258 19.3333,-258 19.3333,-258 24.1667,-258 29,-262.8333 29,-267.6667 29,-267.6667 29,-590.3333 29,-590.3333 29,-595.1667 24.1667,-600 19.3333,-600"/>
          <text text-anchor="middle" x="425.4" y="16.5" font-family="Helvetica,sans-Serif" font-size="12.00" fill="#000000" transform="rotate(-90)">Screening</text>
        </a>
      </g>
    </g>
    <!-- included -->
    <g id="node3" class="node">
      <title>included</title>
      <g id="a_node3">
        <a xlink:title="Blue included box">
          <path fill="#bcd2ee" stroke="#bcd2ee" d="M19.3333,-166.5C19.3333,-166.5 9.6667,-166.5 9.6667,-166.5 4.8333,-166.5 0,-161.6667 0,-156.8333 0,-156.8333 0,-14.1667 0,-14.1667 0,-9.3333 4.8333,-4.5 9.6667,-4.5 9.6667,-4.5 19.3333,-4.5 19.3333,-4.5 24.1667,-4.5 29,-9.3333 29,-14.1667 29,-14.1667 29,-156.8333 29,-156.8333 29,-161.6667 24.1667,-166.5 19.3333,-166.5"/>
          <text text-anchor="middle" x="81.9" y="16.5" font-family="Helvetica,sans-Serif" font-size="12.00" fill="#000000" transform="rotate(-90)">Included</text>
        </a>
      </g>
    </g>
    <!-- 1 -->
    <g id="node4" class="node">
      <title>1</title>
      <g id="a_node4">
        <a xlink:title="Grey title box; Previous studies">
          <path fill="#dcdcdc" stroke="#dcdcdc" d="M310.8333,-748.9C310.8333,-748.9 78.1666,-748.9 78.1666,-748.9 73.3333,-748.9 68.5,-744.0667 68.5,-739.2333 68.5,-739.2333 68.5,-729.5667 68.5,-729.5667 68.5,-724.7333 73.3333,-719.9 78.1666,-719.9 78.1666,-719.9 310.8333,-719.9 310.8333,-719.9 315.6666,-719.9 320.5,-724.7333 320.5,-729.5667 320.5,-729.5667 320.5,-739.2333 320.5,-739.2333 320.5,-744.0667 315.6666,-748.9 310.8333,-748.9"/>
          <text text-anchor="middle" x="194.5" y="-730.8" font-family="Helvetica,sans-Serif" font-size="12.00" fill="#000000">Previous studies</text>
        </a>
      </g>
    </g>
    <!-- 2 -->
    <g id="node5" class="node">
      <title>2</title>
      <g id="a_node5">
        <a xlink:title="Studies included in Jones and DuVal (2019)">
          <polygon fill="#dcdcdc" stroke="#dcdcdc" points="320.5,-684 68.5,-684 68.5,-612 320.5,-612 320.5,-684"/>
          <text text-anchor="middle" x="194.5" y="-666" font-family="Helvetica,sans-Serif" font-size="12.00" fill="#000000">Studies included in Jones and DuVal</text>
          <text text-anchor="middle" x="194.5" y="-651.6" font-family="Helvetica,sans-Serif" font-size="12.00" fill="#000000">(2019) (n = 40)</text>
          <text text-anchor="middle" x="194.5" y="-637.2" font-family="Helvetica,sans-Serif" font-size="12.00" fill="#000000">Studies included in Davies et al. (2020)</text>
          <text text-anchor="middle" x="194.5" y="-622.8" font-family="Helvetica,sans-Serif" font-size="12.00" fill="#000000">(n = 58)</text>
        </a>
      </g>
    </g>
    <!-- 3 -->
    <g id="node6" class="node">
      <title>3</title>
      <g id="a_node6">
        <a xlink:title="Yellow title box; Identification of new studies via databases and registers">
          <path fill="#ffc125" stroke="#ffc125" d="M868.8333,-748.9C868.8333,-748.9 348.1666,-748.9 348.1666,-748.9 343.3333,-748.9 338.5,-744.0667 338.5,-739.2333 338.5,-739.2333 338.5,-729.5667 338.5,-729.5667 338.5,-724.7333 343.3333,-719.9 348.1666,-719.9 348.1666,-719.9 868.8333,-719.9 868.8333,-719.9 873.6666,-719.9 878.5,-724.7333 878.5,-729.5667 878.5,-729.5667 878.5,-739.2333 878.5,-739.2333 878.5,-744.0667 873.6666,-748.9 868.8333,-748.9"/>
          <text text-anchor="middle" x="608.5" y="-730.8" font-family="Helvetica,sans-Serif" font-size="12.00" fill="#000000">Identification of new studies via databases and registers</text>
        </a>
      </g>
    </g>
    <!-- 4 -->
    <g id="node7" class="node">
      <title>4</title>
      <g id="a_node7">
        <a xlink:title="Records identified from: Databases">
          <polygon fill="none" stroke="#000000" points="590.5,-666.3005 338.5,-666.3005 338.5,-629.6994 590.5,-629.6994 590.5,-666.3005"/>
          <text text-anchor="middle" x="464.5" y="-651.6" font-family="Helvetica,sans-Serif" font-size="12.00" fill="#000000">Records identified from:</text>
          <text text-anchor="middle" x="464.5" y="-637.2" font-family="Helvetica,sans-Serif" font-size="12.00" fill="#000000">Databases (n = 2,855)</text>
        </a>
      </g>
    </g>
    <!-- 5 -->
    <g id="node8" class="node">
      <title>5</title>
      <g id="a_node8">
        <a xlink:title="Duplicate records">
          <polygon fill="none" stroke="#000000" points="878.5,-680.6012 626.5,-680.6012 626.5,-615.3988 878.5,-615.3988 878.5,-680.6012"/>
          <text text-anchor="middle" x="752.5" y="-666" font-family="Helvetica,sans-Serif" font-size="12.00" fill="#000000">Records removed before screening:</text>
          <text text-anchor="middle" x="752.5" y="-651.6" font-family="Helvetica,sans-Serif" font-size="12.00" fill="#000000">Duplicate records (n = 901)</text>
          <text text-anchor="middle" x="752.5" y="-637.2" font-family="Helvetica,sans-Serif" font-size="12.00" fill="#000000">Records retrieved by Jones &amp; DuVal and</text>
          <text text-anchor="middle" x="752.5" y="-622.8" font-family="Helvetica,sans-Serif" font-size="12.00" fill="#000000">Davies et al. &lt; 2019 (n = 898)</text>
        </a>
      </g>
    </g>
    <!-- 6 -->
    <g id="node9" class="node">
      <title>6</title>
      <g id="a_node9">
        <a xlink:title="Records screened (databases and registers)">
          <polygon fill="none" stroke="#000000" points="590.5,-540.3005 338.5,-540.3005 338.5,-503.6995 590.5,-503.6995 590.5,-540.3005"/>
          <text text-anchor="middle" x="464.5" y="-525.6" font-family="Helvetica,sans-Serif" font-size="12.00" fill="#000000">Records screened</text>
          <text text-anchor="middle" x="464.5" y="-511.2" font-family="Helvetica,sans-Serif" font-size="12.00" fill="#000000">(n = 1,056)</text>
        </a>
      </g>
    </g>
    <!-- 7 -->
    <g id="node10" class="node">
      <title>7</title>
      <g id="a_node10">
        <a xlink:title="Records excluded (databases and registers)">
          <polygon fill="none" stroke="#000000" points="878.5,-540.3005 626.5,-540.3005 626.5,-503.6995 878.5,-503.6995 878.5,-540.3005"/>
          <text text-anchor="middle" x="752.5" y="-525.6" font-family="Helvetica,sans-Serif" font-size="12.00" fill="#000000">Records excluded</text>
          <text text-anchor="middle" x="752.5" y="-511.2" font-family="Helvetica,sans-Serif" font-size="12.00" fill="#000000">(n = 1,008)</text>
        </a>
      </g>
    </g>
    <!-- 8 -->
    <g id="node11" class="node">
      <title>8</title>
      <g id="a_node11">
        <a xlink:title="Reports sought for retrieval (databases and registers)">
          <polygon fill="none" stroke="#000000" points="590.5,-468.3005 338.5,-468.3005 338.5,-431.6994 590.5,-431.6994 590.5,-468.3005"/>
          <text text-anchor="middle" x="464.5" y="-453.6" font-family="Helvetica,sans-Serif" font-size="12.00" fill="#000000">Reports sought for retrieval</text>
          <text text-anchor="middle" x="464.5" y="-439.2" font-family="Helvetica,sans-Serif" font-size="12.00" fill="#000000">(n = 48)</text>
        </a>
      </g>
    </g>
    <!-- 9 -->
    <g id="node12" class="node">
      <title>9</title>
      <g id="a_node12">
        <a xlink:title="Reports not retrieved (databases and registers)">
          <polygon fill="none" stroke="#000000" points="878.5,-468.3005 626.5,-468.3005 626.5,-431.6994 878.5,-431.6994 878.5,-468.3005"/>
          <text text-anchor="middle" x="752.5" y="-453.6" font-family="Helvetica,sans-Serif" font-size="12.00" fill="#000000">Reports not retrieved</text>
          <text text-anchor="middle" x="752.5" y="-439.2" font-family="Helvetica,sans-Serif" font-size="12.00" fill="#000000">(n = 0)</text>
        </a>
      </g>
    </g>
    <!-- 10 -->
    <g id="node13" class="node">
      <title>10</title>
      <g id="a_node13">
        <a xlink:title="Reports assessed for eligibility (databases and registers)">
          <polygon fill="none" stroke="#000000" points="590.5,-333.3005 338.5,-333.3005 338.5,-296.6995 590.5,-296.6995 590.5,-333.3005"/>
          <text text-anchor="middle" x="464.5" y="-318.6" font-family="Helvetica,sans-Serif" font-size="12.00" fill="#000000">Reports assessed for eligibility</text>
          <text text-anchor="middle" x="464.5" y="-304.2" font-family="Helvetica,sans-Serif" font-size="12.00" fill="#000000">(n = 48)</text>
        </a>
      </g>
    </g>
    <!-- 11 -->
    <g id="node14" class="node">
      <title>11</title>
      <g id="a_node14">
        <a xlink:title="Reports excluded (databases and registers)">
          <polygon fill="#ffffff" stroke="#000000" points="878.5,-383.6006 626.5,-383.6006 626.5,-246.3994 878.5,-246.3994 878.5,-383.6006"/>
          <text text-anchor="middle" x="752.5" y="-369" font-family="Helvetica,sans-Serif" font-size="12.00" fill="#000000">Reports excluded:</text>
          <text text-anchor="middle" x="752.5" y="-354.6" font-family="Helvetica,sans-Serif" font-size="12.00" fill="#000000">Studies excluded (n = 19)</text>
          <text text-anchor="middle" x="752.5" y="-340.2" font-family="Helvetica,sans-Serif" font-size="12.00" fill="#000000">Not the study design necessary (n = 10)</text>
          <text text-anchor="middle" x="752.5" y="-325.8" font-family="Helvetica,sans-Serif" font-size="12.00" fill="#000000">Not the type of study necessary (n = 3)</text>
          <text text-anchor="middle" x="752.5" y="-311.4" font-family="Helvetica,sans-Serif" font-size="12.00" fill="#000000">Study on humans (n = 2)</text>
          <text text-anchor="middle" x="752.5" y="-297" font-family="Helvetica,sans-Serif" font-size="12.00" fill="#000000">Does not contain data to calculate</text>
          <text text-anchor="middle" x="752.5" y="-282.6" font-family="Helvetica,sans-Serif" font-size="12.00" fill="#000000">effect sizes (n = 2)</text>
          <text text-anchor="middle" x="752.5" y="-268.2" font-family="Helvetica,sans-Serif" font-size="12.00" fill="#000000">No full-text available (n = 1)</text>
          <text text-anchor="middle" x="752.5" y="-253.8" font-family="Helvetica,sans-Serif" font-size="12.00" fill="#000000">Same data as earlier study (n = 1)</text>
        </a>
      </g>
    </g>
    <!-- 12 -->
    <g id="node15" class="node">
      <title>12</title>
      <g id="a_node15">
        <a xlink:title="New studies included in review">
          <polygon fill="none" stroke="#000000" points="590.5,-162 338.5,-162 338.5,-108 590.5,-108 590.5,-162"/>
          <text text-anchor="middle" x="464.5" y="-138.6" font-family="Helvetica,sans-Serif" font-size="12.00" fill="#000000">New studies included in review</text>
          <text text-anchor="middle" x="464.5" y="-124.2" font-family="Helvetica,sans-Serif" font-size="12.00" fill="#000000">(n = 29)</text>
        </a>
      </g>
    </g>
    <!-- 19 -->
    <g id="node16" class="node">
      <title>19</title>
      <g id="a_node16">
        <a xlink:title="Total studies included in review">
          <polygon fill="#dcdcdc" stroke="#dcdcdc" points="590.5,-72 338.5,-72 338.5,0 590.5,0 590.5,-72"/>
          <text text-anchor="middle" x="464.5" y="-39.6" font-family="Helvetica,sans-Serif" font-size="12.00" fill="#000000">Total studies included in review</text>
          <text text-anchor="middle" x="464.5" y="-25.2" font-family="Helvetica,sans-Serif" font-size="12.00" fill="#000000">(n = 127)</text>
        </a>
      </g>
    </g>
    <!-- A -->
    <g id="node17" class="node">
      <title>A</title>
      <polygon fill="none" stroke="#ffffff" points="195,-36.5 194,-36.5 194,-35.5 195,-35.5 195,-36.5"/>
    </g>
    <!-- C -->
  </g>
</svg>
